<svg xmlns="http://www.w3.org/2000/svg" xmlns:xlink="http://www.w3.org/1999/xlink" width="150" zoomAndPan="magnify" viewBox="0 0 112.5 112.499997" height="150" preserveAspectRatio="xMidYMid meet" version="1.2"><defs><clipPath id="0903d2d7d2"><path d="M 0 13.441406 L 55 13.441406 L 55 79 L 0 79 Z M 0 13.441406 "/></clipPath><clipPath id="a2ac704b7a"><path d="M 19 66 L 55 66 L 55 98.5625 L 19 98.5625 Z M 19 66 "/></clipPath><clipPath id="b8f4be5b0f"><path d="M 57 13.441406 L 112 13.441406 L 112 79 L 57 79 Z M 57 13.441406 "/></clipPath><clipPath id="0cb3034545"><path d="M 57 66 L 93 66 L 93 98.5625 L 57 98.5625 Z M 57 66 "/></clipPath></defs><g id="254c39b9fa"><g style="fill:#000000;fill-opacity:1;"><g transform="translate(28.168554, 49.355639)"><path style="stroke:none" d="M 0.671875 0 L 0.34375 0 L 0.34375 -2.125 L 0.671875 -2.125 Z M 0.3125 -2.703125 C 0.3125 -2.785156 0.328125 -2.84375 0.359375 -2.875 C 0.398438 -2.90625 0.445312 -2.921875 0.5 -2.921875 C 0.550781 -2.921875 0.597656 -2.898438 0.640625 -2.859375 C 0.679688 -2.828125 0.703125 -2.773438 0.703125 -2.703125 C 0.703125 -2.628906 0.679688 -2.578125 0.640625 -2.546875 C 0.597656 -2.515625 0.550781 -2.5 0.5 -2.5 C 0.445312 -2.5 0.398438 -2.515625 0.359375 -2.546875 C 0.328125 -2.578125 0.3125 -2.628906 0.3125 -2.703125 Z M 0.3125 -2.703125 "/></g></g><g clip-rule="nonzero" clip-path="url(#0903d2d7d2)"><path style=" stroke:none;fill-rule:nonzero;fill:#5d4037;fill-opacity:1;" d="M 43.054688 15.765625 C 46.613281 14.542969 50.347656 13.757812 54.140625 13.480469 C 50.332031 13.433594 46.515625 13.992188 42.824219 15.035156 C 40.972656 15.542969 39.164062 16.222656 37.410156 17.03125 C 35.632812 17.804688 33.992188 18.863281 32.402344 19.984375 L 31.878906 20.351562 L 32.265625 20.914062 L 37.363281 28.363281 L 37.28125 28.476562 C 35.53125 26.683594 33.597656 25.222656 31.496094 23.941406 C 29.089844 22.507812 26.503906 21.363281 23.808594 20.585938 C 21.109375 19.847656 18.339844 19.269531 15.539062 19.183594 C 12.742188 18.988281 9.945312 19.21875 7.175781 19.554688 L 0.0078125 20.421875 L 7.160156 21.894531 C 11.816406 22.855469 16.476562 24.503906 20.914062 26.414062 C 25.355469 28.375 29.578125 30.820312 33.472656 33.703125 C 37.414062 36.535156 40.871094 39.980469 43.902344 43.746094 C 47 47.34375 49.199219 51.582031 51.222656 55.871094 C 49.488281 58.613281 47.738281 61.347656 46.046875 64.117188 L 45.875 64.398438 L 46.023438 64.652344 C 48.722656 69.265625 51.378906 73.902344 54.140625 78.480469 C 51.839844 73.773438 49.441406 69.121094 47.082031 64.445312 C 48.984375 61.757812 50.828125 59.039062 52.6875 56.324219 L 52.910156 56.003906 L 52.757812 55.644531 C 50.808594 51.050781 48.648438 46.453125 45.492188 42.507812 C 42.472656 38.488281 38.851562 34.910156 34.820312 31.90625 C 30.816406 28.867188 26.472656 26.289062 21.90625 24.207031 C 19.589844 23.148438 17.230469 22.226562 14.820312 21.441406 C 15.019531 21.449219 15.222656 21.445312 15.425781 21.457031 C 18.0625 21.5 20.660156 22.023438 23.203125 22.679688 C 25.746094 23.367188 28.164062 24.445312 30.460938 25.714844 C 32.742188 26.984375 34.953125 28.582031 36.699219 30.402344 L 37.484375 31.226562 L 38.089844 30.347656 L 39.097656 28.878906 L 39.449219 28.367188 L 39.101562 27.894531 L 33.773438 20.671875 C 35.085938 19.703125 36.4375 18.769531 37.902344 18.011719 C 39.550781 17.136719 41.269531 16.367188 43.054688 15.765625 "/></g><path style=" stroke:none;fill-rule:nonzero;fill:#5d4037;fill-opacity:1;" d="M 32.308594 37.609375 C 33.488281 38.597656 34.664062 39.601562 35.746094 40.714844 C 37.144531 42.128906 38.5 43.605469 39.753906 45.164062 C 41.003906 46.730469 42.269531 48.292969 43.4375 49.933594 C 44.605469 51.582031 45.722656 53.261719 46.789062 54.984375 C 46.019531 53.105469 45.085938 51.296875 44.089844 49.523438 C 43.085938 47.753906 42.039062 45.996094 40.839844 44.339844 C 38.476562 41.007812 35.808594 37.84375 32.667969 35.113281 L 31.761719 34.320312 L 31.105469 35.339844 C 29.535156 37.777344 28.535156 40.324219 27.898438 43.050781 C 27.601562 44.425781 27.386719 45.746094 27.339844 47.226562 C 27.300781 48.703125 27.546875 50.21875 28.132812 51.621094 C 29.339844 54.453125 31.953125 56.464844 34.703125 57.351562 C 37.488281 58.242188 40.382812 58.210938 43.109375 57.808594 L 44.589844 57.585938 L 43.933594 56.292969 C 42.671875 53.816406 41.1875 51.566406 39.574219 49.367188 C 37.945312 47.199219 36.183594 45.097656 34.09375 43.339844 L 33.601562 42.929688 L 33.335938 43.425781 C 32.945312 44.144531 32.800781 44.808594 32.683594 45.523438 C 32.582031 46.222656 32.574219 46.925781 32.621094 47.617188 C 32.722656 49 33.113281 50.328125 33.644531 51.570312 C 33.300781 50.261719 33.140625 48.917969 33.171875 47.605469 C 33.199219 46.945312 33.28125 46.296875 33.445312 45.671875 C 33.542969 45.300781 33.683594 44.929688 33.84375 44.589844 C 35.441406 46.382812 36.9375 48.265625 38.226562 50.300781 C 39.363281 52.066406 40.363281 53.929688 41.285156 55.796875 C 39.277344 55.890625 37.285156 55.695312 35.46875 55.082031 C 33.207031 54.3125 31.296875 52.753906 30.414062 50.640625 C 29.476562 48.558594 29.722656 46.074219 30.234375 43.5625 C 30.671875 41.519531 31.367188 39.445312 32.308594 37.609375 "/><path style=" stroke:none;fill-rule:nonzero;fill:#5d4037;fill-opacity:1;" d="M 21.851562 81.945312 C 21.136719 81.023438 20.417969 80.109375 19.863281 79.082031 C 19.265625 78.085938 18.660156 77.105469 18.027344 76.144531 C 17.449219 75.152344 17.003906 74.085938 16.484375 73.066406 L 15.703125 71.542969 L 15.097656 69.945312 C 14.722656 68.871094 14.226562 67.835938 13.953125 66.734375 C 12.523438 62.40625 12.007812 57.835938 12 53.242188 C 12.042969 48.632812 12.726562 43.980469 14.085938 39.359375 C 11.316406 43.34375 9.710938 48.140625 9.109375 53.039062 C 8.5 57.953125 8.898438 63.050781 10.394531 67.828125 C 12.007812 72.542969 14.269531 77.078125 17.519531 80.800781 C 18.964844 82.800781 20.929688 84.335938 22.628906 86.054688 C 24.53125 87.582031 26.527344 88.976562 28.539062 90.28125 C 27.058594 88.339844 25.429688 86.617188 23.945312 84.785156 L 21.851562 81.945312 "/><g clip-rule="nonzero" clip-path="url(#a2ac704b7a)"><path style=" stroke:none;fill-rule:nonzero;fill:#5d4037;fill-opacity:1;" d="M 44.007812 91.765625 C 42.414062 90.539062 40.710938 89.503906 39.203125 88.199219 C 37.59375 87.027344 36.09375 85.738281 34.605469 84.433594 C 31.632812 81.828125 28.855469 79.019531 26.289062 76 C 23.769531 72.941406 21.398438 69.722656 19.484375 66.0625 C 19.929688 70.222656 21.734375 74.148438 23.945312 77.699219 C 26.175781 81.277344 29.039062 84.410156 32.144531 87.230469 C 35.324219 89.976562 38.800781 92.34375 42.503906 94.253906 C 44.324219 95.253906 46.289062 95.984375 48.183594 96.800781 C 50.152344 97.464844 52.128906 98.082031 54.140625 98.5625 C 52.453125 97.320312 50.710938 96.273438 49.007812 95.167969 C 47.347656 93.988281 45.632812 92.9375 44.007812 91.765625 "/></g><g clip-rule="nonzero" clip-path="url(#b8f4be5b0f)"><path style=" stroke:none;fill-rule:nonzero;fill:#5d4037;fill-opacity:1;" d="M 104.804688 19.554688 C 102.035156 19.21875 99.242188 18.988281 96.441406 19.183594 C 93.644531 19.269531 90.871094 19.847656 88.175781 20.585938 C 85.480469 21.363281 82.894531 22.507812 80.484375 23.941406 C 78.386719 25.222656 76.453125 26.683594 74.703125 28.476562 L 74.621094 28.363281 L 79.71875 20.914062 L 80.101562 20.351562 L 79.582031 19.984375 C 77.988281 18.863281 76.347656 17.804688 74.574219 17.03125 C 72.820312 16.222656 71.011719 15.542969 69.160156 15.035156 C 65.46875 13.992188 61.648438 13.433594 57.84375 13.480469 C 61.636719 13.757812 65.371094 14.542969 68.929688 15.765625 C 70.714844 16.367188 72.433594 17.136719 74.082031 18.011719 C 75.546875 18.769531 76.898438 19.703125 78.210938 20.671875 L 72.882812 27.894531 L 72.53125 28.367188 L 72.882812 28.878906 L 73.894531 30.347656 L 74.496094 31.226562 L 75.285156 30.402344 C 77.03125 28.582031 79.242188 26.984375 81.523438 25.714844 C 83.820312 24.445312 86.238281 23.367188 88.78125 22.679688 C 91.320312 22.023438 93.917969 21.5 96.558594 21.457031 C 96.761719 21.445312 96.960938 21.449219 97.164062 21.441406 C 94.75 22.226562 92.394531 23.148438 90.078125 24.207031 C 85.507812 26.289062 81.164062 28.867188 77.160156 31.90625 C 73.128906 34.910156 69.511719 38.488281 66.492188 42.507812 C 63.335938 46.453125 61.175781 51.050781 59.222656 55.644531 L 59.074219 56.003906 L 59.292969 56.324219 C 61.15625 59.039062 63 61.757812 64.898438 64.445312 C 62.539062 69.121094 60.140625 73.773438 57.84375 78.480469 C 60.605469 73.902344 63.261719 69.265625 65.960938 64.652344 L 66.109375 64.398438 L 65.9375 64.117188 C 64.246094 61.347656 62.492188 58.613281 60.757812 55.871094 C 62.78125 51.582031 64.980469 47.34375 68.082031 43.746094 C 71.113281 39.980469 74.570312 36.535156 78.511719 33.703125 C 82.402344 30.820312 86.628906 28.375 91.070312 26.414062 C 95.503906 24.503906 100.167969 22.855469 104.824219 21.894531 L 111.976562 20.421875 L 104.804688 19.554688 "/></g><path style=" stroke:none;fill-rule:nonzero;fill:#5d4037;fill-opacity:1;" d="M 79.363281 47.617188 C 79.410156 46.925781 79.402344 46.222656 79.300781 45.523438 C 79.183594 44.808594 79.035156 44.144531 78.648438 43.425781 L 78.378906 42.929688 L 77.890625 43.339844 C 75.800781 45.097656 74.035156 47.199219 72.40625 49.367188 C 70.796875 51.566406 69.3125 53.816406 68.050781 56.292969 L 67.390625 57.585938 L 68.875 57.808594 C 71.601562 58.210938 74.496094 58.242188 77.28125 57.351562 C 80.03125 56.464844 82.644531 54.453125 83.851562 51.621094 C 84.4375 50.21875 84.679688 48.703125 84.644531 47.226562 C 84.597656 45.746094 84.386719 44.425781 84.085938 43.050781 C 83.449219 40.324219 82.449219 37.777344 80.878906 35.339844 L 80.222656 34.320312 L 79.316406 35.113281 C 76.175781 37.84375 73.507812 41.007812 71.140625 44.339844 C 69.945312 45.996094 68.898438 47.753906 67.894531 49.523438 C 66.894531 51.296875 65.964844 53.105469 65.191406 54.984375 C 66.257812 53.261719 67.378906 51.582031 68.542969 49.933594 C 69.714844 48.292969 70.980469 46.730469 72.230469 45.164062 C 73.484375 43.605469 74.835938 42.128906 76.238281 40.714844 C 77.320312 39.601562 78.496094 38.597656 79.675781 37.609375 C 80.613281 39.445312 81.3125 41.519531 81.75 43.5625 C 82.261719 46.074219 82.507812 48.558594 81.566406 50.640625 C 80.6875 52.753906 78.773438 54.3125 76.515625 55.082031 C 74.695312 55.695312 72.703125 55.890625 70.695312 55.796875 C 71.621094 53.929688 72.621094 52.066406 73.757812 50.300781 C 75.042969 48.265625 76.539062 46.382812 78.136719 44.589844 C 78.300781 44.929688 78.441406 45.300781 78.539062 45.671875 C 78.703125 46.296875 78.785156 46.945312 78.8125 47.605469 C 78.839844 48.917969 78.683594 50.261719 78.335938 51.570312 C 78.871094 50.328125 79.257812 49 79.363281 47.617188 "/><path style=" stroke:none;fill-rule:nonzero;fill:#5d4037;fill-opacity:1;" d="M 97.898438 39.359375 C 99.253906 43.980469 99.941406 48.632812 99.984375 53.242188 C 99.972656 57.835938 99.460938 62.40625 98.03125 66.734375 C 97.757812 67.835938 97.257812 68.871094 96.886719 69.945312 L 96.277344 71.542969 L 95.496094 73.066406 C 94.976562 74.085938 94.535156 75.152344 93.957031 76.144531 C 93.324219 77.105469 92.714844 78.085938 92.117188 79.082031 C 91.5625 80.109375 90.84375 81.023438 90.132812 81.945312 L 88.039062 84.785156 C 86.554688 86.617188 84.925781 88.339844 83.445312 90.28125 C 85.453125 88.976562 87.453125 87.582031 89.351562 86.054688 C 91.050781 84.335938 93.019531 82.800781 94.464844 80.800781 C 97.714844 77.078125 99.976562 72.542969 101.589844 67.828125 C 103.085938 63.050781 103.484375 57.953125 102.871094 53.039062 C 102.269531 48.140625 100.664062 43.34375 97.898438 39.359375 "/><g clip-rule="nonzero" clip-path="url(#0cb3034545)"><path style=" stroke:none;fill-rule:nonzero;fill:#5d4037;fill-opacity:1;" d="M 92.496094 66.0625 C 90.582031 69.722656 88.214844 72.941406 85.691406 76 C 83.128906 79.019531 80.351562 81.828125 77.378906 84.433594 C 75.890625 85.738281 74.386719 87.027344 72.78125 88.199219 C 71.273438 89.503906 69.566406 90.539062 67.976562 91.765625 C 66.347656 92.9375 64.632812 93.988281 62.976562 95.167969 C 61.273438 96.273438 59.53125 97.320312 57.84375 98.5625 C 59.851562 98.082031 61.832031 97.464844 63.800781 96.800781 C 65.695312 95.984375 67.65625 95.253906 69.480469 94.253906 C 73.179688 92.34375 76.660156 89.976562 79.835938 87.230469 C 82.945312 84.410156 85.808594 81.277344 88.039062 77.699219 C 90.25 74.148438 92.054688 70.222656 92.496094 66.0625 "/></g></g></svg>